<svg fill="none" height="24" viewBox="0 0 24 24" width="24" xmlns="http://www.w3.org/2000/svg">
   <g stroke-width="1.5">
      <path
         d="m2.5 12c0-4.47834 0-6.71751 1.39124-8.10876 1.39125-1.39124 3.63042-1.39124 8.10876-1.39124 4.4783 0 6.7175 0 8.1088 1.39124 1.3912 1.39125 1.3912 3.63042 1.3912 8.10876 0 4.4783 0 6.7175-1.3912 8.1088-1.3913 1.3912-3.6305 1.3912-8.1088 1.3912-4.47834 0-6.71751 0-8.10876-1.3912-1.39124-1.3913-1.39124-3.6305-1.39124-8.1088z" />
      <circle cx="16.5" cy="7.5" r="1.5" />
      <g stroke-linejoin="round">
         <path
            d="m2 14.1354c.66663-.0899 1.3406-.1343 2.01569-.1327 2.85594-.0561 5.64192.7702 7.86081 2.3315 2.058 1.4479 3.504 3.4407 4.1235 5.6658" />
         <path d="m13 18c1.7015-1.3267 3.5345-2.0072 5.3862-1.9999 1.05-.0011 2.095.2215 3.1138.6616" />
      </g>
   </g>
</svg>