<svg fill="none" height="24" viewBox="0 0 24 24" width="24" xmlns="http://www.w3.org/2000/svg">
   <g stroke-width="1.5">
      <circle cx="1.5" cy="1.5" r="1.5" stroke-linecap="round" stroke-linejoin="round" transform="matrix(1 0 0 -1 16 8.00024)" />
      <path
         d="m2.77423 11.1439c-1.00315 1.1204-1.02473 2.8107-.10407 3.9998 1.82695 2.3596 3.82658 4.3592 6.18617 6.1861 1.18907.9207 2.87937.8991 3.99977-.104 3.0418-2.7236 5.8274-5.5699 8.5158-8.6979.2658-.3092.432-.6882.4693-1.0943.165-1.79562.504-6.96893-.9009-8.37386-1.405-1.40493-6.5783-1.06597-8.3739-.90098-.4061.03732-.7851.20357-1.0944.46935-3.12788 2.68835-5.97419 5.474-8.69777 8.51579z" />
      <path d="m7 14.0002 3 3" stroke-linecap="round" stroke-linejoin="round" />
   </g>
</svg>