<svg 
xmlns="http://www.w3.org/2000/svg" xmlns:xlink="http://www.w3.org/1999/xlink" width="24px" height="24px"
viewBox="0 0 24 24" 
version="1.1">
   <g >
      <path
         d="M 12 6 C 18.898438 6 21 10.351562 21.75 13.5 C 22.5 17.25 19.5 21 12 21 C 4.5 21 1.5 17.25 2.25 13.5 C 3 10.5 5.25 6 12 6 M 6.449219 13.5 L 10.5 13.5 C 11.550781 13.5 11.550781 12 10.5 12 L 6.75 12 C 5.851562 12 5.550781 13.5 6.449219 13.5 M 13.5 12 C 12.449219 12 12.449219 13.5 13.5 13.5 L 17.550781 13.5 C 18.449219 13.5 18.148438 12 17.25 12 L 13.5 12 M 7.5 7.5 C 7.5 3 8.25 0.75 9.75 1.050781 C 11.25 1.5 11.25 3.75 9 7.5 M 15 7.5 C 12.75 3.75 12.75 1.5 14.25 1.050781 C 15.75 0.75 16.5 3 16.5 7.5 " />
   </g>
</svg>