<svg 
   xmlns="http://www.w3.org/2000/svg"
   width="24px" 
   height="24px"
   viewBox="0 0 24 24" 
   version="1.1"
>
   <g 
   stroke-width="3" 
   stroke-linecap="round" 
   stroke-linejoin="round"
   stroke="rgb(0%,0%,0%)">
      <path
         style="stroke:none"
         d="M 18.691406 11.171875 L 18.96875 11.679688 L 19.476562 11.957031 L 18.96875 12.234375 L 18.691406 12.746094 L 18.414062 12.234375 L 17.902344 11.957031 L 18.414062 11.679688 Z M 8.585938 3.683594 L 8.863281 4.191406 L 9.375 4.46875 L 8.863281 4.75 L 8.585938 5.257812 L 8.304688 4.75 L 7.800781 4.46875 L 8.304688 4.191406 Z M 6.152344 5.144531 L 6.554688 5.871094 L 7.28125 6.273438 L 6.554688 6.675781 L 6.152344 7.402344 L 5.753906 6.675781 L 5.019531 6.273438 L 5.753906 5.871094 Z M 6.152344 5.144531 " />
      <path
         style="fill:none"
         d="M 59.5 50.5 L 36.677083 50.5 C 36.677083 50.5 35.770833 54.09375 32.5 54.09375 C 29.229167 54.09375 28.5 50.447917 28.5 50.447917 L 4.5 50.447917 M 7.5 46.5 L 7.5 41.3125 C 7.5 41.3125 26.052083 36.052083 32.239583 45.375 M 56.5 46.5 L 56.5 41.5 C 56.5 41.5 38.75 36.604167 32.5 46.03125 L 32.5 47.5 M 32.5 37.5 L 32.5 9.5 M 41.5 31.5 L 41.5 18.5 M 24.5 34.5 L 24.5 21.5 "
         transform="matrix(0.375,0,0,0.375,0,0)" />
   </g>
</svg>